<?xml version="1.0" encoding="utf-8"?>
<!-- Generator: Adobe Illustrator 24.1.3, SVG Export Plug-In . SVG Version: 6.00 Build 0)  -->
<svg version="1.1" id="レイヤー_1" xmlns="http://www.w3.org/2000/svg" xmlns:xlink="http://www.w3.org/1999/xlink" x="0px"
	 y="0px" viewBox="0 0 149.8 189.3" style="enable-background:new 0 0 149.8 189.3;" xml:space="preserve">
<style type="text/css">
	.st0{fill:#7F1084;}
	.st1{fill:#FFFFFF;}
</style>
<polygon class="st0" points="149.8,0 0,155.1 149.8,155.1 "/>
<g>
	<path class="st0" d="M96.6,159h-3.9v7.5H78.4v0.7h6.1l0,0.6c0,3.3-0.1,9.6-1.4,13.7c-1,3.2-2.5,5.2-4.1,6.6c2.9-1,6.2-2.8,7.5-6.1
		c1.4-3.5,1.7-6.6,1.7-14.2l0-0.6h4.3v21.5h3.9v-21.5h4.4l0,0.6c0,7.6,0.3,10.7,1.7,14.2c1.3,3.2,4.6,5.1,7.5,6.1
		c-1.5-1.3-3.1-3.4-4.1-6.6c-1.3-4.1-1.4-10.4-1.4-13.7l0-0.6h6.2v-0.7H96.6V159z"/>
	<path class="st0" d="M65.8,160.2H46.9c0,0,0.5,16.7-1.1,22c-1,3.2-2.7,5.8-4.2,7.1c2.9-1,6.2-3.4,7.5-6.6
		c1.5-3.7,1.7-12.4,1.7-21.2v-0.6h10.9l-2.6,11.5h8.3v0.6c0,2.5-0.2,10.3-2.6,13.4c-1,1.3-2.8,1.9-5.3,1.9c-0.7,0-1.3,0-1.9-0.1
		c1.1,0.4,2.4,0.6,3.7,0.6c3,0,5.6-1.1,7.2-3.1c2.3-2.9,2.9-11.5,3-14h-8.2L65.8,160.2z"/>
	<path class="st0" d="M127.7,176.5c-0.8,0.6-1.8,1.1-2.8,1.5v-9.9h3.3v-0.7h-3.3V159h-3.5v8.4h-4.3v0.7h4.3v10.7
		c-2.4,0.4-4.3,0.3-4.3,0.3l0.8,2.6C126.2,180.3,127.7,176.5,127.7,176.5z"/>
	<path class="st0" d="M134.5,161.6l0-0.6h15v-0.7h-18.8v0.7h0l0,0.6c0.1,3.5,0.2,15.1-1.4,20c-1,3.2-2.5,5.8-4.1,7.2
		c2.9-1,6.2-3.4,7.5-6.7c0.9-2.2,1.4-6,1.6-12.1l0-0.6h9.9l0,0.6c0,1.4-0.2,6-2.4,10.3c-1.6-3.6-2-6.9-2.1-8.3l-4.2,0.7
		c1.5,4.1,3.3,7.2,5.2,9.6c-1.6,2.4-4,5-6.2,6.2c2.5-0.6,5.6-2.1,7.9-4.2c2.1,2.1,4.1,3.5,5.9,4.4c-2.1-1.6-3.7-3.5-4.8-5.4
		c0.6-0.6,1-1.2,1.4-1.9c3.2-5.2,3.5-10.9,3.6-12.7h-14.1l0-0.6C134.5,166,134.5,163.8,134.5,161.6z"/>
</g>
<g>
	<path class="st1" d="M118.7,142.1v-22.5L101.3,143h14v5.7h3.4V143h3.6v-1H118.7z M103.2,142.1l12.1-16.4v16.4H103.2z"/>
	<path class="st1" d="M134.2,129.8c-2.6,0-5,1.1-6.8,2.8v0c-0.3-7.1,2.9-12.7,8.3-12.1c3.2,0.6,5.8,3.1,6.4,6.4l1-0.2
		c-0.7-4.3-4.6-7.5-9-7.4c-3.3,0.1-6.3,2.1-7.9,5.2c-1.5,3-2.2,6.9-1.9,14.5c0.3,6.6,4.7,10.3,9.9,10.3c5.3,0,9.7-4.4,9.7-9.8
		C143.9,134.2,139.6,129.8,134.2,129.8z M134,148.4c-3.5,0-6.4-3.7-6.5-8.4c0-0.1,0-0.3,0-0.4h0c0-4.9,2.9-8.9,6.5-8.9
		c3.6,0,6.5,4,6.5,8.9C140.5,144.5,137.6,148.4,134,148.4z"/>
</g>
</svg>
