<svg xmlns="http://www.w3.org/2000/svg" viewBox="0 0 66.14 78.85">
  <defs>
    <style>.cls-1{fill:#7f1084;}.cls-2{fill:#fff;}.cls-3{fill:#f19db5;}.cls-4{fill:#404040;}</style>
  </defs>
  <g id="レイヤー_2" data-name="レイヤー 2">
    <g id="design">
      <polygon class="cls-1"
        points="55.32 8.27 55.32 50.77 14.29 50.77 11.14 54.03 58.78 54.03 58.78 4.69 55.32 8.27" />
      <polygon class="cls-2" points="6.79 49.07 53.51 0.68 53.51 49.07 6.79 49.07" />
      <path class="cls-3" d="M53.24,1.36V48.79H7.43ZM53.78,0,6.14,49.34H53.78Z" />
      <path class="cls-3"
        d="M42.79,36.78l-6.14,8.3h5v2h1.19v-2h1.27v-.34H42.79Zm-1.19,8H37.33L41.6,39Z" />
      <path class="cls-3"
        d="M48.29,40.39a3.31,3.31,0,0,0-2.38,1h0c-.12-2.49,1-4.5,2.92-4.26a2.79,2.79,0,0,1,2.24,2.27l.34,0a3.15,3.15,0,0,0-3.17-2.62,3.24,3.24,0,0,0-2.78,1.86c-.52,1-.79,2.45-.66,5.11a3.48,3.48,0,0,0,3.49,3.63,3.47,3.47,0,0,0,0-6.93M48.2,47C47,47,46,45.67,45.89,44v-.14h0c0-1.73,1-3.13,2.31-3.13s2.3,1.4,2.3,3.13S49.47,47,48.2,47" />
      <path class="cls-3"
        d="M51.3,63.28l-.06-.06c-.62.38-1.17.69-1.7,1V60.4h1.62v-.25l-.56-.54-.54.52h-.52V56.35h-.79v3.78H47v.27h1.75v4.12a7.64,7.64,0,0,1-1.42.42h0l.23.67,0,0a9.31,9.31,0,0,0,3.74-2.32" />
      <path class="cls-3"
        d="M56.18,65.17a11,11,0,0,0,2.33-5h0v-.21L58,59.39l-.54.52H53c0-.76.06-1.58.06-2.44h5.46v-.25L58,56.68l-.54.52H52v.32c0,.19,0,.65,0,1.28,0,.33,0,.7,0,1.11h0v.27h0a25.86,25.86,0,0,1-.43,4,7.85,7.85,0,0,1-1.35,3.39l.07.06a8.57,8.57,0,0,0,1.93-3.21,16.87,16.87,0,0,0,.74-4.2h4.41a9.88,9.88,0,0,1-1.66,4.4,9.3,9.3,0,0,1-1.37-3.19v0l-.85.31v0a9,9,0,0,0,1.75,3.54,11.85,11.85,0,0,1-2.88,2.54l0,.07a10.61,10.61,0,0,0,3.26-2.14,8.52,8.52,0,0,0,3.91,2.24l0-.08a12.2,12.2,0,0,1-3.46-2.68" />
      <path class="cls-3"
        d="M35.65,59.43v-.21l-.57-.54-.54.52H34V56.79l.46-.44H33.21V59.2H31.49v.27h1.63a14.71,14.71,0,0,1-2,5.81l.07,0a11.07,11.07,0,0,0,2.06-3.22V68H34V59.47h1.65Z" />
      <path class="cls-3"
        d="M35.34,62.5a.32.32,0,0,0,.16-.14.48.48,0,0,0,.06-.24s0-.06,0-.09,0-.2-.07-.27a2.52,2.52,0,0,0-1.33-1.29l0,.07a3,3,0,0,1,.68,1.14,3.31,3.31,0,0,1,.1.4.91.91,0,0,0,.1.28.34.34,0,0,0,.26.15Z" />
      <path class="cls-3"
        d="M36.66,61.12h2.43V56.78l-.46-.43-.44.43H36.6l-.73-.43v4.77Zm0-.26V59.75H38.4v1.11Zm0-2.45H38.4v1.08H36.66ZM38.4,57v1.1H36.66V57Z" />
      <path class="cls-3"
        d="M42.89,63.12l-.53.52h-4l.55-.88H38l-.52.88H35v.27h2.32L36.13,66H37a14,14,0,0,1,2.12.14,8,8,0,0,1-4,1.56v.11a8.94,8.94,0,0,0,4.83-1.5,8.8,8.8,0,0,1,3.34,1.58l.18-.11a9.72,9.72,0,0,0-3.07-1.85,5,5,0,0,0,1.26-2h1.83v-.27h0Zm-3.28,2.51a8,8,0,0,0-2.19-.4l.83-1.32H40.6A3.71,3.71,0,0,1,39.61,65.63Z" />
      <path class="cls-3" d="M35.6,62.66a5,5,0,0,0,1.82-1.24h-.91a2.72,2.72,0,0,1-.95,1.16Z" />
      <path class="cls-3"
        d="M39.83,61.12H43V56.78l-.45-.43-.44.43H40.56l-.73-.43v.43h0Zm.79-.26V59.75h1.74v1.11Zm0-2.45h1.74v1.08H40.62ZM42.36,57v1.1H40.62V57Z" />
      <path class="cls-3" d="M37.56,61.42a4.83,4.83,0,0,0,1.82,1.24l0-.08a2.72,2.72,0,0,1-1-1.16Z" />
      <path class="cls-3" d="M41.38,61.42h-.91a2.67,2.67,0,0,1-1,1.16l.05.08A5,5,0,0,0,41.38,61.42Z" />
      <path class="cls-3" d="M41.52,61.42a4.87,4.87,0,0,0,1.81,1.24l.05-.08a2.72,2.72,0,0,1-1-1.16Z" />
      </g>
  </g>
</svg>