<svg class="m--sg" version="1.1" xmlns:xlink="http://www.w3.org/1999/xlink" viewBox="0 0 244 58">
  <path style="fill:#812990;"
    d="M42,52.7v-6l-4.4,6H42z M48.8,48.6c-1.4,0-2.4,1.4-2.4,3.2v0.2c0.1,1.7,1.1,3.1,2.4,3.1s2.3-1.4,2.3-3.3C51.1,49.9,50.1,48.6,48.8,48.6z M0,57.4h54.5V1L0,57.4z M44.5,53h-1.3v2.1H42V53h-5.1l6.4-8.5v8.2h1.3V53z M48.8,55.3c-2,0-3.6-1.6-3.6-3.6c0,0,0-0.1,0-0.1c-0.1-2.8,0.2-4.2,0.7-5.3c0.5-1.1,1.6-1.9,2.9-1.9c1.6,0,3,1.1,3.3,2.7h-0.4c-0.2-1.2-1.1-2.2-2.3-2.4c-1.9-0.2-3.1,1.8-3,4.4c0.6-0.7,1.5-1,2.4-1.1c2,0,3.6,1.6,3.6,3.6l0,0c0.1,1.9-1.4,3.6-3.3,3.7C49,55.3,48.9,55.3,48.8,55.3z M165.3,21.4c-1,0.7-2.1,1.3-3.3,1.7V11.7h3.8v-0.9H162V1.2h-4.1v9.6H153v0.9h4.9v12.3c-1.6,0.2-3.3,0.4-4.9,0.4l1,3C163.4,25.8,165.3,21.4,165.3,21.4z M168.6,3.4v0.7c0.1,4,0.3,17.4-1.5,23.2c-1.2,3.7-2.9,6.8-4.7,8.2c3.4-1.2,7.2-4,8.7-7.6c1.4-3.7,1.6-7,1.8-14v-0.7h11.5v0.8c0,4.1-1,8.2-2.8,11.9c-1.4-3.1-2.2-6.3-2.4-9.6l-4.9,0.9c1.4,4,3.4,7.7,6.1,11c-1.9,2.8-4.6,5.9-7.1,7.1c3.4-0.9,6.5-2.5,9.1-4.8c2,2.1,4.3,3.8,6.9,5c-2.2-1.7-4.1-3.8-5.6-6.2c0.6-0.7,1.1-1.4,1.6-2.2c3.7-5.9,4.1-12.5,4.1-14.7H173v-0.7c0.1-2.4,0.1-4.9,0.1-7.5V3.4h17.3V2.6h-21.7V3.4z M93.8,2.5H72.1c0,0,0.6,19.2-1.4,25.4c-1.2,3.7-3.1,6.8-4.8,8.2c3.4-1.2,7.2-4,8.7-7.6c1.4-3.7,1.9-14.3,2-24.4V3.4h12.5l-3,13.2h9.6v0.7c0,2.9-0.2,11.9-3,15.3c-1.2,1.4-3.3,2.2-6.2,2.2h-2.2c1.4,0.5,2.8,0.7,4.2,0.7c3.2,0.1,6.2-1.2,8.3-3.6c2.6-3.3,3.3-13.2,3.4-16.1h-9.5L93.8,2.5z M129.3,1.2h-4.4v8.6h-16.4v0.8h7v0.7c0,3.9-0.1,11.1-1.6,15.8c-0.8,2.9-2.4,5.5-4.6,7.5c3.3-1.2,7.1-3.2,8.6-6.9c1.4-3.8,2-7.6,2-16.3v-0.8h5v24.8h4.4V10.6h5v0.8c0.1,8.7,0.4,12.3,2,16.3c1.6,4.1,5.3,5.8,8.7,6.9c-2.2-2-3.9-4.6-4.7-7.5c-1.4-4.7-1.6-12-1.5-15.8v-0.7h7.1V9.8h-16.6V1.2z M215.5,25.8V0.4L195.9,27h15.8v6.5h3.9V27h4.1v-1.2H215.5z M211.7,25.8h-13.6l13.6-18.4V25.8z M233.1,11.9c-2.9,0-5.6,1.2-7.6,3.2c-0.4-8,3.3-14.4,9.4-13.6c3.7,0.6,6.5,3.6,7.1,7.2l1.2-0.2c-0.9-4.9-5.3-8.4-10.2-8.3c-3.8,0.2-7.2,2.4-8.9,5.9c-1.6,3.4-2.5,7.8-2.1,16.4s5.3,11.6,11.2,11.6c6,0,10.9-4.9,10.9-10.9c0-0.1,0-0.1,0-0.2c0.1-6-4.7-11-10.7-11.1C233.2,11.9,233.2,11.9,233.1,11.9z M232.8,32.9c-4,0-7.1-4.1-7.3-9.5V23c0-5.5,3.3-9.9,7.3-9.9c4.1,0,7.4,4.4,7.4,9.9S236.9,32.9,232.8,32.9z M79.5,50.4c0-4.6-3.4-6.7-6.8-6.7c0,0,0,0,0,0c-0.3,0-0.6,0-0.8,0c-3.5,0.2-6.1,3.2-5.9,6.7c0,4.1,2.7,6.9,6.7,6.9c0.1,0,0.2,0,0.3,0c0.1,0,0.3,0,0.4,0C76.9,57.1,79.7,54,79.5,50.4z M77.2,50.4c0,3.7-1.8,6-4.6,6c-2.8,0-4.5-2.3-4.5-6c0-4.3,2.3-5.8,4.5-5.8C74.9,44.6,77.2,46.4,77.2,50.4z M84.6,44.7v5.8h5.3v0.9h-5.3v5.8h-2.1V43.8H91v0.9H84.6z M95.9,44.7v5.8h5.3v0.9h-5.3v5.8h-2.1V43.8h8.6v0.9H95.9z M107.3,43.8v13.3h-2.1V43.8H107.3z M120.6,53.7l0.7,0.5l-0.1,0.2c-0.8,1.8-2.6,2.9-4.6,2.9c-0.1,0-0.1,0-0.2,0c-3.6,0-6.1-2.8-6.1-6.8c0-4,2.5-6.8,6.1-6.8c2-0.1,3.9,1,4.8,2.8l0.1,0.2l-0.7,0.5l-0.1-0.2c-0.7-1.4-2.2-2.4-3.8-2.4c0,0,0,0,0,0c-2,0-4.1,1.6-4.1,5.9s2.1,5.9,4.1,5.9c0,0,0,0,0,0c1.6,0,3.1-1,3.8-2.5L120.6,53.7z M126.8,43.8v13.3h-2.2V43.8H126.8z M135.3,43.3l-6.1,13.8h0.9l1.8-4.1h5.3l1.8,4.1h2.4L135.3,43.3z M132.4,52.1l2.2-5l2.2,5H132.4z M152.3,56.2v0.9h-8.5V43.8h2.1v12.4H152.3z M173.7,43.8l-4.8,14l-3.8-10.1l-3.7,10.2l-4.9-14h2.3l3.2,9.5l3.7-10.1l3.7,10l3.3-9.5H173.7z M178.3,44.7v5.2h5.3v0.9h-5.3v5.5h6.4v0.9h-8.6V43.8h8.6v0.9H178.3z M194.7,50c1.1-0.5,1.8-1.6,1.8-2.8c0-2.1-1.7-3.4-4.7-3.4h-4.3v13.3h4.7c3.4,0,5-1.9,5-3.7C197.2,51.8,196.3,50.6,194.7,50z M192.7,44.7c0.7,0.1,1.3,0.5,1.6,1.1c0.4,0.6,0.5,1.2,0.4,1.9c-0.3,1.4-1.6,2.3-3,2h-2v-5l2,0C192.1,44.6,192.4,44.6,192.7,44.7z M189.7,56.2v-5.7l2.4,0c0.2,0,0.3,0,0.5,0c0.7,0.1,1.4,0.4,1.8,0.9c0.5,0.5,0.7,1.2,0.6,2c0,0.1,0,0.2,0,0.3c-0.1,1.5-1.4,2.7-2.9,2.6H189.7z M213.8,53.2c0,2.7-2.5,4.1-4.8,4.1c-0.1,0-0.2,0-0.3,0c-1.9,0-3.7-1.2-4.5-3l-0.1-0.2l0.7-0.5l0.1,0.3c0.6,1.5,2.1,2.5,3.7,2.5c0,0,0.1,0,0.1,0c1.7,0,3.4-0.8,3.4-2.7c0-1.5-0.5-1.7-2-2.2c-0.3-0.1-0.7-0.2-1.1-0.4l-0.3-0.1c-2.1-0.8-3.6-1.4-3.6-3.8c0-2.3,2.2-3.6,4.3-3.6c2.2,0,3.6,0.9,4.1,2.7l0,0.2l-0.7,0.5l-0.1-0.3c-0.4-1.4-1.7-2.3-3.1-2.1c-0.7,0-2.9,0.2-2.9,2.2c0,1.4,0.2,1.5,1.6,2c0.3,0.1,0.6,0.2,0.9,0.3l0.1,0C211.4,49.8,213.8,50.6,213.8,53.2z M219.1,43.8v13.3h-2.1V43.8H219.1z M232.8,43.8v0.9h-4.4v12.4h-2.2V44.7h-4.4v-0.9H232.8z M237.5,44.7v5.2h5.3v0.9h-5.3v5.5h6.4v0.9h-8.6V43.8h8.6v0.9H237.5z">
  </path>
</svg>